<svg width="206" height="170" viewBox="0 0 206 170" fill="none" xmlns="http://www.w3.org/2000/svg">
<path d="M124.432 136.583H10.1429C6.19643 136.583 3 133.803 3 130.37V21.6394C3 18.2067 6.19643 15.4263 10.1429 15.4263H195.857C199.804 15.4263 203 18.2067 203 21.6394V130.37C203 133.803 199.804 136.583 195.857 136.583H174.418" stroke="white" stroke-width="6" stroke-miterlimit="10"/>
<path d="M38.7148 3H106.572" stroke="white" stroke-width="6" stroke-miterlimit="10"/>
<path d="M113.715 3H120.858" stroke="white" stroke-width="6" stroke-miterlimit="10"/>
<path d="M103 30.9587H149.429" stroke="white" stroke-width="6" stroke-miterlimit="10"/>
<path d="M103 46.4919H174.429" stroke="white" stroke-width="6" stroke-miterlimit="10"/>
<path d="M181.57 46.4919H188.713" stroke="white" stroke-width="6" stroke-miterlimit="10"/>
<path d="M174.43 139.69V164.176L149.43 151.209L124.43 164.542V124.595" stroke="white" stroke-width="6" stroke-miterlimit="10"/>
<path d="M149.429 133.476C129.704 133.476 113.715 119.567 113.715 102.41C113.715 85.2525 129.704 71.3445 149.429 71.3445C169.154 71.3445 185.143 85.2525 185.143 102.41C185.143 111.099 181.04 118.955 174.429 124.591V142.795" stroke="white" stroke-width="6" stroke-miterlimit="10"/>
<path d="M128.225 105.119C128.075 104.234 128 103.33 128 102.41C128 96.2124 131.479 90.7199 136.829 87.3306" stroke="white" stroke-width="6" stroke-miterlimit="10"/>
<path d="M146.359 83.9612C147.363 83.8365 148.384 83.771 149.427 83.771C150.47 83.771 151.492 83.8365 152.495 83.9612" stroke="white" stroke-width="6" stroke-miterlimit="10"/>
<path d="M39.9269 79.4927L23.8233 57.0819C21.9412 54.46 20.8555 51.3627 20.8555 48.0449C20.8555 38.6071 29.6483 30.9587 40.4983 30.9587C47.534 30.9587 53.7055 34.174 57.1733 39.011L75.0305 63.8636C76.9126 66.4824 77.9983 69.5797 77.9983 72.8975C77.9983 79.1324 74.159 84.5844 68.4269 87.5698" stroke="white" stroke-width="6" stroke-miterlimit="10"/>
<path d="M32.7578 69.5146L66.0935 51.428" stroke="white" stroke-width="6" stroke-miterlimit="10"/>
<path d="M49.4286 114.836C61.2632 114.836 70.8571 106.491 70.8571 96.1964C70.8571 85.9021 61.2632 77.5569 49.4286 77.5569C37.5939 77.5569 28 85.9021 28 96.1964C28 106.491 37.5939 114.836 49.4286 114.836Z" stroke="white" stroke-width="6" stroke-miterlimit="10"/>
<path d="M64.5845 83.0149L34.2773 109.377" stroke="white" stroke-width="6" stroke-miterlimit="10"/>
</svg>
