<svg width="100" height="100" viewBox="0 0 100 100" fill="none" xmlns="http://www.w3.org/2000/svg">
<path d="M82.8125 50C87.1272 50 90.625 46.5022 90.625 42.1875C90.625 37.8728 87.1272 34.375 82.8125 34.375C78.4978 34.375 75 37.8728 75 42.1875C75 46.5022 78.4978 50 82.8125 50Z" stroke="white" stroke-width="4" stroke-linecap="round" stroke-linejoin="round"/>
<path d="M17.1875 50C21.5022 50 25 46.5022 25 42.1875C25 37.8728 21.5022 34.375 17.1875 34.375C12.8728 34.375 9.375 37.8728 9.375 42.1875C9.375 46.5022 12.8728 50 17.1875 50Z" stroke="white" stroke-width="4" stroke-linecap="round" stroke-linejoin="round"/>
<path d="M35.9375 31.25C40.2522 31.25 43.75 27.7522 43.75 23.4375C43.75 19.1228 40.2522 15.625 35.9375 15.625C31.6228 15.625 28.125 19.1228 28.125 23.4375C28.125 27.7522 31.6228 31.25 35.9375 31.25Z" stroke="white" stroke-width="4" stroke-linecap="round" stroke-linejoin="round"/>
<path d="M64.0625 31.25C68.3772 31.25 71.875 27.7522 71.875 23.4375C71.875 19.1228 68.3772 15.625 64.0625 15.625C59.7478 15.625 56.25 19.1228 56.25 23.4375C56.25 27.7522 59.7478 31.25 64.0625 31.25Z" stroke="white" stroke-width="4" stroke-linecap="round" stroke-linejoin="round"/>
<path d="M71.5764 60.8803C67.6569 58.7033 64.7555 55.0667 63.5034 50.7616L63.503 50.762C62.6532 47.8382 60.8773 45.2693 58.4423 43.4413C56.0073 41.6133 53.0448 40.625 50 40.625C46.9552 40.625 43.9927 41.6133 41.5577 43.4413C39.1227 45.2693 37.3468 47.8382 36.4969 50.762L36.4966 50.7616C35.2444 55.0667 32.3431 58.7033 28.4235 60.8803C25.6001 62.4107 23.4739 64.9689 22.4857 68.0246C21.4974 71.0803 21.7228 74.3991 23.1152 77.293C24.5077 80.187 26.9603 82.4342 29.9647 83.5688C32.9691 84.7033 36.2949 84.6383 39.2527 83.3872C46.1393 80.5634 53.8607 80.5634 60.7473 83.3872C63.7053 84.6397 67.0319 84.7057 70.0372 83.5714C73.0425 82.4371 75.496 80.1896 76.8887 77.2949C78.2815 74.4003 78.5067 71.0807 77.5176 68.0245C76.5285 64.9683 74.4011 62.41 71.5764 60.8803H71.5764Z" stroke="white" stroke-width="4" stroke-linecap="round" stroke-linejoin="round"/>
</svg>
