<svg width="66" height="65" viewBox="0 0 66 65" fill="none" xmlns="http://www.w3.org/2000/svg">
<path d="M22.6768 34.245L45.4976 54.3359C45.7617 54.5683 46.0815 54.7282 46.4259 54.7998C46.7703 54.8714 47.1273 54.8522 47.4621 54.7442C47.7968 54.6362 48.0978 54.4431 48.3355 54.1837C48.5732 53.9244 48.7395 53.6077 48.818 53.2647L58.3643 11.5904C58.4469 11.2301 58.4296 10.8541 58.3143 10.5029C58.199 10.1517 57.9901 9.83864 57.7101 9.59745C57.4301 9.35625 57.0896 9.19607 56.7253 9.13416C56.361 9.07225 55.9868 9.11096 55.6428 9.24613L8.80262 27.6555C8.3944 27.8159 8.04908 28.1043 7.81834 28.4774C7.5876 28.8506 7.48384 29.2885 7.52259 29.7255C7.56134 30.1626 7.74052 30.5754 8.03331 30.902C8.3261 31.2287 8.71676 31.4518 9.14684 31.5379L22.6768 34.245Z" stroke="white" stroke-width="3" stroke-linecap="round" stroke-linejoin="round"/>
<path d="M22.6768 34.245L57.2218 9.28516" stroke="white" stroke-width="3" stroke-linecap="round" stroke-linejoin="round"/>
<path d="M34.0741 44.2788L26.1428 52.2134C25.8589 52.4975 25.4971 52.691 25.1033 52.7693C24.7094 52.8477 24.3012 52.8075 23.9302 52.6537C23.5591 52.5 23.242 52.2396 23.0189 51.9056C22.7958 51.5716 22.6768 51.1789 22.6768 50.7771V34.2449" stroke="white" stroke-width="3" stroke-linecap="round" stroke-linejoin="round"/>
</svg>
