<svg width="66" height="65" viewBox="0 0 66 65" fill="none" xmlns="http://www.w3.org/2000/svg">
<path d="M12.2148 44.941C9.1877 39.8358 8.12757 33.8007 9.23352 27.9688C10.3395 22.137 13.5354 16.9096 18.2212 13.2684C22.9071 9.6271 28.7604 7.82238 34.6822 8.1931C40.6039 8.56383 46.1868 11.0845 50.3823 15.2818C54.5778 19.4791 57.0974 25.0642 57.468 30.9885C57.8386 36.9128 56.0347 42.7686 52.395 47.4565C48.7553 52.1443 43.5302 55.3416 37.7008 56.4481C31.8715 57.5545 25.8389 56.494 20.7358 53.4656L20.7359 53.4653L12.3208 55.8707C11.9726 55.9702 11.6042 55.9747 11.2537 55.8839C10.9032 55.793 10.5833 55.61 10.3273 55.3539C10.0712 55.0977 9.88833 54.7777 9.79751 54.4271C9.70668 54.0764 9.71124 53.7078 9.81072 53.3595L12.215 44.9409L12.2148 44.941Z" stroke="white" stroke-width="3" stroke-linecap="round" stroke-linejoin="round"/>
<path d="M39.2913 46.7187C36.6201 46.7225 33.9744 46.199 31.5058 45.1781C29.0372 44.1572 26.7942 42.659 24.9054 40.7694C23.0166 38.8797 21.5191 36.6358 20.4986 34.1662C19.4781 31.6965 18.9548 29.0497 18.9586 26.3774C18.9646 24.4964 19.7162 22.6946 21.0484 21.3672C22.3806 20.0398 24.1847 19.2953 26.0649 19.2969V19.2969C26.3733 19.2969 26.6762 19.3784 26.943 19.5333C27.2097 19.6882 27.4308 19.9108 27.5838 20.1787L30.5509 25.3734C30.7299 25.6867 30.8222 26.042 30.8183 26.4028C30.8145 26.7636 30.7147 27.1169 30.5291 27.4263L28.1462 31.3995C29.3721 34.1213 31.5506 36.3007 34.2713 37.5272V37.5272L38.2428 35.1433C38.5521 34.9577 38.9052 34.8578 39.2659 34.8539C39.6265 34.8501 39.9817 34.9424 40.2948 35.1215L45.4873 38.0899C45.7551 38.2429 45.9777 38.4641 46.1325 38.731C46.2873 38.9978 46.3688 39.3008 46.3688 39.6094V39.6094C46.3634 41.4883 45.6169 43.2891 44.2916 44.6203C42.9663 45.9516 41.1693 46.7057 39.2913 46.7187V46.7187Z" stroke="white" stroke-width="3" stroke-linecap="round" stroke-linejoin="round"/>
</svg>
