<svg width="65" height="65" viewBox="0 0 65 65" fill="none" xmlns="http://www.w3.org/2000/svg">
<path d="M32.4862 42.6562C38.0929 42.6562 42.6381 38.1091 42.6381 32.5C42.6381 26.8909 38.0929 22.3438 32.4862 22.3438C26.8794 22.3438 22.3342 26.8909 22.3342 32.5C22.3342 38.1091 26.8794 42.6562 32.4862 42.6562Z" stroke="white" stroke-width="3" stroke-miterlimit="10"/>
<path d="M43.6533 9.14062H21.319C14.5909 9.14062 9.13672 14.5972 9.13672 21.3281V43.6719C9.13672 50.4028 14.5909 55.8594 21.319 55.8594H43.6533C50.3814 55.8594 55.8356 50.4028 55.8356 43.6719V21.3281C55.8356 14.5972 50.3814 9.14062 43.6533 9.14062Z" stroke="white" stroke-width="3" stroke-linecap="round" stroke-linejoin="round"/>
<path d="M45.6837 22.3437C47.3657 22.3437 48.7293 20.9796 48.7293 19.2969C48.7293 17.6141 47.3657 16.25 45.6837 16.25C44.0017 16.25 42.6381 17.6141 42.6381 19.2969C42.6381 20.9796 44.0017 22.3437 45.6837 22.3437Z" fill="white"/>
</svg>
