<svg width="65" height="65" viewBox="0 0 65 65" fill="none" xmlns="http://www.w3.org/2000/svg">
<path d="M32.5138 22.3445C32.514 20.011 33.3173 17.7487 34.7886 15.938C36.2599 14.1273 38.3095 12.8786 40.5928 12.4018C42.8761 11.925 45.2538 12.2492 47.3263 13.32C49.3988 14.3907 51.0396 16.1426 51.9729 18.2812L60.9392 18.2813L52.751 26.4729C52.2178 34.7121 48.5703 42.4395 42.5491 48.086C36.5279 53.7325 28.5844 56.8749 20.3314 56.875C12.2099 56.875 10.1795 53.8281 10.1795 53.8281C10.1795 53.8281 18.301 50.7813 22.3618 44.6875C22.3618 44.6875 6.11873 36.5625 10.1795 14.2188C10.1795 14.2188 20.3314 24.375 32.5103 26.4063L32.5138 22.3445Z" stroke="white" stroke-width="3" stroke-linecap="round" stroke-linejoin="round"/>
</svg>
