<?xml version="1.0" encoding="utf-8"?>
<!-- Generator: Adobe Illustrator 23.1.0, SVG Export Plug-In . SVG Version: 6.00 Build 0)  -->
<svg version="1.1" id="Слой_1" xmlns="http://www.w3.org/2000/svg" xmlns:xlink="http://www.w3.org/1999/xlink" x="0px" y="0px"
	 viewBox="0 0 1000 278.15" style="enable-background:new 0 0 1000 278.15;" xml:space="preserve">
<style type="text/css">
	.st0{fill-rule:evenodd;clip-rule:evenodd;fill:#73FF00;}
	.st1{fill:#33F2FF;}
	.st2{fill:#FFFFFF;}
</style>
<g>
	<path class="st0" d="M55.11,84.33c-4.07,24.97,1.97,50.41,15.56,64.93c3.02,3.14,12.31,10.34,20.67,16.03
		c17.07,11.38,28.69,22.3,37.28,34.84c3.14,4.65,5.92,8.25,6.16,8.01c0.23-0.12-0.23-4.41-0.93-9.52
		c-1.51-10.92-5.34-23.11-10.92-34.15c-3.83-7.55-26.83-39.49-30.78-42.63c-1.16-1.05-1.28-1.39-0.35-1.51
		c3.37,0,21.84,17.77,35.66,34.26l10.57,12.66l0.35-4.65c0.46-6.74-2.67-20.79-6.39-28.34c-4.41-8.71-18.47-22.65-29.97-29.62
		c-5.11-3.14-16.38-10.22-24.97-15.68C54.41,74.34,56.74,74.8,55.11,84.33z"/>
	<path class="st0" d="M172.84,106.74c-14.75,7.67-24.86,17.31-28.34,26.71c-2.67,7.09-4.88,27.53-2.9,27.53
		c2.67,0,18.12-12.2,22.65-17.77c5.58-7.09,23.11-42.63,20.91-42.63C184.69,100.59,179.11,103.37,172.84,106.74z"/>
	<path class="st0" d="M183.99,148.9c-16.49,4.76-27.06,11.27-35.08,21.49c-2.56,3.25-4.53,6.27-4.18,6.5
		c0.23,0.23,4.99-2.44,10.57-6.04c5.46-3.6,10.57-6.39,11.15-6.16c0.58,0.23-2.56,4.76-7.09,9.99
		c-9.29,11.15-15.56,19.86-14.75,20.79c1.05,1.05,20.56-8.71,28.11-14.05c9.87-7.2,17.31-15.68,22.07-25.67
		c2.21-4.65,4.07-8.71,4.07-9.18C198.86,145.19,193.63,146,183.99,148.9z"/>
	<path class="st1" d="M129.16,215.07c-4.49-10.79-10.24-22.93-19.07-30.85c-14.77-13.26-36.15-20.9-47.86-37.4
		c-10.99-15.48-13.69-34.03-12.51-52.59c0.56-6.71,2.18-13.33,2.24-20.14c-7.83,2.94-14.32,8.74-20.14,14.55
		C1.19,119.26,1.6,172.55,33.12,202.55C59.78,228.23,96.93,227.57,129.16,215.07z"/>
	<circle class="st1" cx="136.28" cy="92.46" r="16.82"/>
</g>
<g transform="translate(0.000000,765.000000) scale(0.100000,-0.100000)">
	<path class="st2" d="M1988.26,6889.77c-6.45-2.15-6.88-2.58-3.22-4.08c2.36-0.86,16.76-2.15,32.24-2.79
		c45.35-2.15,78.88-12.9,96.93-30.95c10.75-10.75,19.34-30.3,23.43-53.3c6.02-35.03,7.52-142.92,7.52-568.47
		c-0.21-496.69-1.93-601.57-12.04-666.26c-6.45-42.55-15.69-66.63-30.73-80.17c-12.04-10.75-24.29-14.19-77.59-20.63
		c-13.76-1.72-13.97-1.72-7.52-4.3c6.66-3.01,64.05-2.15,152.6,1.93c23.86,1.07,60.39,1.07,88.12,0c97.58-4.08,193-4.94,199.88-1.93
		c6.45,2.58,6.45,2.58-6.45,4.3c-7.09,0.86-26.44,2.58-42.98,4.08c-54.16,4.51-70.71,9.46-86.83,25.58
		c-15.9,15.9-23.64,39.98-29.01,89.41c-8.17,75.65-8.6,117.56-8.81,687.76c0,553.64,0,554.5,4.3,562.03
		c8.81,15.04,43.2,21.49,115.63,21.49c51.37,0,77.16-2.36,108.54-9.67c61.47-14.61,109.4-42.77,156.25-91.77
		c55.45-57.81,87.9-129.6,100.15-220.94c4.3-32.02,3.87-118.85-0.86-144c-18.05-96.72-80.6-178.17-170.22-222.45
		c-49.86-24.5-91.77-34.17-161.84-37.18c-40.84-1.93-50.08-4.08-37.83-9.46c10.53-4.51,78.23-3.22,113.69,2.36
		c224.38,33.96,373.32,191.93,389.87,413.51c4.51,60.18-9.89,121.65-41.7,177.74c-57.81,102.3-156.03,157.11-313.79,175.59
		c-39.98,4.51-135.83,4.94-250.39,0.86c-59.53-2.15-92.63-2.15-137.55-0.43C2056.61,6891.49,1996.43,6892.35,1988.26,6889.77z"/>
	<path class="st2" d="M6325.42,6885.26l-9.67-2.58l19.34-1.72c42.98-3.65,59.32-6.23,78.45-12.47
		c50.51-16.55,75.01-38.69,101.87-91.77c5.37-10.96,124.87-307.56,265.65-659.17c140.56-351.83,258.98-646.06,263.07-654.01
		c7.09-14.4,16.33-26.44,20.2-26.44c6.45,0,16.33,18.27,50.51,93.49c11.82,26.01,29.01,63.83,38.26,84.04
		c44.92,98.86,294.23,693.56,419.75,1001.33c38.9,95,52.01,125.95,64.26,150.45c42.13,84.9,73.93,108.97,150.45,113.91
		c12.68,0.86,23,2.36,23,3.44c0,4.08-25.36,4.51-96.72,1.07c-58.67-2.58-85.54-3.01-116.06-1.5c-83.18,4.3-146.58,5.16-156.89,2.15
		c-9.46-2.58-8.81-2.79,25.79-5.37c52.87-3.65,62.97-7.52,72.21-27.51c4.3-9.24,5.16-14.4,5.16-33.53c0-26.87-3.65-43.2-20.85-95.43
		c-53.3-162.48-258.98-699.15-368.38-961.35c-16.76-39.98-31.38-75.22-32.67-78.66c-2.15-5.37-3.44-5.8-13.54-5.8
		c-8.6,0-11.39,0.86-12.68,3.65c-17.62,45.35-402.55,1074.19-407.28,1089.23c-6.02,18.05-7.31,25.79-8.17,47.5
		c-0.64,21.06-0.21,27.08,2.58,32.67c10.32,19.77,28.37,26.22,84.04,29.66c19.99,1.07,22.78,1.72,18.27,3.87
		c-6.88,3.01-93.06,2.79-161.19-0.65c-36.32-1.72-64.91-1.93-102.09-0.21C6434.17,6887.19,6336.38,6888.05,6325.42,6885.26z"/>
	<path class="st2" d="M5708.81,6490.01c-139.49-11.61-263.71-68.78-353.55-163.34c-77.37-81.46-128.52-185.69-146.36-298.53
		c-7.74-49.43-6.45-97.15,4.3-156.03c16.55-89.84,55.88-176.24,111.33-244.8c20.42-25.15,61.47-64.48,88.33-84.25
		c122.08-90.7,294.45-124.87,458-90.91c207.19,42.98,366.23,194.94,418.03,399.76c13.33,52.01,15.9,75.44,15.9,135.4
		c0,60.61-3.01,85.75-16.12,135.4c-51.37,193.65-211.92,327.97-431.78,361.07C5803.37,6491.95,5756.31,6493.88,5708.81,6490.01z
		 M5799.07,6457.78c94.35-9.46,178.39-49,243.72-114.55c80.81-81.24,126.38-192.14,136.69-332.27c3.01-42.98,1.5-124.87-3.44-164.42
		c-24.93-206.33-132.82-332.06-313.14-365.59c-24.5-4.73-98.01-6.45-128.74-3.22c-58.24,6.23-104.45,19.56-153.67,44.27
		c-40.41,20.2-65.55,38.26-99.29,70.92c-104.67,100.8-155.17,246.09-150.23,432c1.93,73.29,9.67,121.86,27.94,177.31
		c10.96,33.53,33.53,78.45,52.44,105.31c18.48,25.79,56.1,63.62,80.81,81.03c52.23,36.75,124.66,62.54,194.94,68.99
		C5716.33,6460.35,5773.28,6460.57,5799.07,6457.78z"/>
	<path class="st2" d="M8309.6,6476.9c-2.58-6.23-10.32-38.47-17.62-71.57c-7.09-33.1-13.54-62.54-14.19-65.55
		c-0.64-3.01,4.3,5.37,10.75,18.48c23,46.21,44.06,59.53,104.45,65.12c12.47,1.29,57.81,2.79,101.01,3.44
		c43.2,0.64,100.58,1.72,127.45,2.36l49.22,1.29l-1.07-413.51c-0.65-276.39-1.72-423.61-3.44-444.46
		c-3.44-44.27-7.74-67.49-15.47-83.18c-9.46-19.56-21.49-25.79-59.96-30.73c-8.17-1.07,7.52-1.29,38.69-0.43
		c67.49,1.93,125.95,1.93,210.63,0c67.27-1.5,74.58-0.21,25.79,4.51c-36.11,3.65-48.36,7.52-60.18,19.56
		c-15.47,15.47-19.77,35.46-23.64,106.6c-1.07,21.49-2.15,215.14-2.15,439.95v401.69l43.63-1.29c23.86-0.65,73.5-1.72,110.04-2.36
		c93.49-1.72,129.81-5.8,162.7-18.27c35.68-13.33,47.5-30.3,52.44-75.22c1.08-10.96,1.93-12.9,3.01-8.6
		c2.58,8.17,6.88,150.88,4.73,153.03c-1.29,1.29-11.39,0.64-24.29-1.29c-43.42-6.45-100.58-7.74-375.9-7.74
		c-262.64,0-338.5,1.29-384.71,6.45c-17.84,2.15-42.98,7.52-53.95,11.82C8314.97,6488.08,8313.04,6485.72,8309.6,6476.9z"/>
	<path class="st2" d="M9857.69,6476.04c-41.05-7.31-65.55-7.95-277.68-6.45c-115.63,0.64-228.25,1.93-250.39,2.58
		c-25.58,0.86-40.41,0.64-40.41-0.65s11.61-2.79,26.44-3.44c54.38-2.79,71.78-14.61,78.88-52.66c4.73-27.08,6.23-122.51,6.23-408.78
		c0.21-286.92-1.5-407.28-6.23-450.27c-3.22-29.66-10.1-62.33-15.04-72c-6.66-12.9-13.54-16.55-41.91-21.49
		c-13.97-2.36-26.01-4.94-26.65-5.59c-0.64-0.86,16.55-0.43,38.47,0.43c57.81,2.79,181.83,2.36,279.4-0.86
		c46.64-1.5,117.35-3.01,156.89-3.22l72-0.43l10.75,5.37c8.81,4.51,11.82,7.52,16.55,17.19c6.23,12.47,13.33,48.79,20.2,101.44
		c3.87,30.95,3.01,43.42-1.08,18.91c-3.65-20.42-12.04-43.63-19.56-55.02c-14.83-21.49-41.48-36.97-73.07-42.77
		c-32.88-5.8-112.19-8.6-167-5.8c-67.27,3.44-89.62,8.6-108.11,25.36c-17.19,15.69-22.78,32.88-25.79,80.38
		c-3.01,45.13-0.43,373.97,3.01,378.05c1.93,2.36,15.26,2.58,79.74,1.5c133.9-2.58,169.57-5.16,197.73-14.4
		c26.01-8.38,35.25-22.35,40.62-61.04l2.58-19.34l1.72,26.87c2.15,39.76,7.52,97.15,10.53,114.98l2.79,15.69l-7.74-6.23
		c-17.19-13.76-36.32-16.55-128.95-19.13c-84.46-2.15-193.86-2.79-198.59-0.86c-3.01,1.29-3.44,21.49-3.44,208.26
		c0,182.9,0.43,207.19,3.22,209.55c2.58,2.15,22.35,2.36,95.21,1.29c50.51-0.86,104.88-2.36,120.79-3.65
		c30.52-2.15,72.86-9.89,86.18-15.69c23-9.89,32.02-26.87,35.46-67.7c2.58-31.59,6.23-12.25,11.61,61.47
		c1.29,17.84,4.3,41.05,6.23,51.58c2.15,10.32,3.87,18.91,3.65,18.91C9872.95,6478.62,9866.08,6477.33,9857.69,6476.04z"/>
	<path class="st2" d="M3012.59,6471.1c-1.07-1.72,3.44-2.36,14.61-2.36c21.49,0,46.85-3.65,57.81-8.38
		c17.62-7.74,27.3-21.49,31.38-44.27c1.29-7.09,2.79-16.33,3.65-20.42c0.64-4.08,1.93-135.19,3.01-291.22
		c1.29-244.37,2.15-287.35,5.16-310.35c14.4-109.18,45.35-181.83,102.73-242c35.46-37.18,72-61.9,119.71-80.6
		c26.65-10.53,69.64-21.92,102.3-26.87c31.59-4.94,101.23-6.66,132.39-3.44c90.48,9.46,165.28,39.98,229.97,93.92
		c78.45,65.34,121,168.5,133.04,321.96c1.29,16.33,2.15,123.37,2.15,261.13c0,128.31,1.07,246.95,2.15,263.5
		c2.36,34.17,6.45,52.44,14.19,63.62c9.89,14.4,33.96,23.43,61.47,23.43c9.89,0,12.68,0.64,10.96,2.36
		c-1.72,1.72-18.91,1.93-64.48,0.21c-36.97-1.29-83.18-1.29-114.55-0.43c-73.93,2.58-98.86,2.58-98.86,0
		c0-1.29,7.09-2.15,16.76-2.15c33.96-0.21,59.1-6.66,71.78-18.7c8.81-8.6,14.61-24.5,16.98-47.5c3.22-32.02,5.16-520.98,2.15-571.7
		c-7.52-127.02-30.3-200.52-81.67-261.99c-24.93-29.66-68.99-59.1-111.98-74.79c-35.25-12.68-57.81-16.55-105.74-17.62
		c-95.64-2.58-149.16,11.39-204.82,53.52c-67.92,51.37-103.38,114.77-119.07,213.63c-8.81,55.67-9.24,75.22-8.17,371.6
		c0.64,245.87,1.29,285.85,4.08,300.03c4.08,19.99,10.1,31.81,19.99,39.98c10.32,8.6,19.77,11.39,43.63,12.9
		c10.75,0.65,19.77,2.15,19.77,3.22s-26.22,1.29-63.83,0.21c-79.52-2.15-86.18-2.15-174.95,0
		C3034.73,6472.82,3013.45,6472.82,3012.59,6471.1z"/>
	<path class="st2" d="M4201.98,6471.53c0-1.29,10.96-2.58,25.36-3.44c31.38-1.29,49-6.02,60.61-15.9
		c10.96-9.46,14.61-16.76,18.91-36.97c3.01-14.4,3.44-61.47,4.3-393.53c0.86-394.38,0-442.1-8.17-491.75
		c-5.16-31.16-7.31-38.9-13.54-47.71c-7.52-11.18-14.4-15.04-33.74-18.48c-36.97-6.66-35.68-7.09,17.19-5.59
		c66.84,1.93,119.28,1.93,203.1,0c68.99-1.5,72.86-0.43,20.63,5.8c-62.97,7.31-72,21.06-77.37,116.06
		c-2.79,46.64-5.59,296.38-3.65,305.84c0.86,3.87,3.22,7.74,5.16,8.81c5.16,2.79,208.26-1.29,215.78-4.3
		c6.23-2.58,21.49-21.71,82.32-102.95c40.84-54.38,120.36-156.03,151.31-193.43c24.93-30.09,60.61-67.06,79.95-82.96
		c19.77-16.12,46.85-31.81,68.13-39.55c32.24-11.61,49-13.33,136.91-14.19c81.67-0.64,82.1-0.43,30.73,6.88
		c-93.28,13.11-150.23,66.41-387.08,361.93l-68.13,84.68v11.61v11.61l32.45,31.38c51.58,49.86,81.89,88.76,104.88,134.97
		c25.15,50.08,38.04,111.98,32.45,153.46c-6.66,49.22-31.38,97.58-69.42,135.4c-34.6,34.6-76.94,56.1-137.34,69.64
		c-56.1,12.68-97.36,14.4-282.19,12.25c-43.63-0.65-108.75-0.21-144.43,0.64C4224.76,6473.03,4201.98,6472.82,4201.98,6471.53z
		 M4598.73,6439.72c27.73-4.94,45.35-10.53,68.99-22.57c87.47-43.84,129.17-133.68,124.66-268.65
		c-1.93-59.1-10.96-99.08-31.16-138.41c-22.57-44.06-53.09-70.49-95-82.32c-20.2-5.59-139.06-5.59-177.31,0
		c-29.23,4.3-47.93,8.6-59.53,13.75c-15.69,6.66-14.83-9.46-14.19,250.6l0.64,233.19l4.94,5.37c5.37,5.59,9.46,6.66,42.13,10.1
		C4492.55,6443.81,4578.31,6443.16,4598.73,6439.72z"/>
	<path class="st2" d="M7840.64,6471.1c0-1.5,4.94-2.36,12.47-2.36c18.27-0.21,39.33-4.94,50.51-11.39
		c12.9-7.52,21.71-25.15,25.58-50.94c4.08-26.44,4.08-777.81,0-829.61c-4.94-63.4-9.67-85.11-21.28-98.86
		c-8.38-9.67-18.27-13.33-46.64-17.19c-9.46-1.29-17.62-2.79-18.27-3.44c-0.64-0.86,21.49-0.43,49.22,0.43
		c61.25,2.36,116.49,2.36,207.4,0.43c70.92-1.5,75.22-0.43,21.71,5.59c-33.31,3.87-44.27,7.74-54.16,18.91
		c-11.82,13.54-15.9,32.67-20.63,95.21c-3.87,52.87-4.08,807.04,0,831.54c6.66,41.69,22.78,56.31,65.55,58.89
		c10.32,0.43,18.7,1.93,18.7,3.01s-25.15,1.29-62.76,0.21c-78.02-2.15-84.68-2.15-163.34,0
		C7859.33,6472.82,7840.64,6472.6,7840.64,6471.1z"/>
</g>
</svg>
