<svg width="44" height="44" viewBox="0 0 44 44" fill="none" xmlns="http://www.w3.org/2000/svg">
<path d="M13.428 22.1423C15.2351 25.837 18.23 28.8182 21.9328 30.6085C22.2037 30.7369 22.5034 30.7925 22.8023 30.7699C23.1012 30.7473 23.3891 30.6472 23.6377 30.4795L29.0898 26.8439C29.3309 26.6831 29.6083 26.585 29.8969 26.5585C30.1855 26.532 30.4762 26.5779 30.7426 26.6921L40.9425 31.0635C41.289 31.2106 41.5782 31.4665 41.7667 31.7923C41.9552 32.1182 42.0327 32.4965 41.9874 32.8703C41.665 35.393 40.4342 37.7117 38.5253 39.3922C36.6164 41.0727 34.1605 41.9999 31.6172 42C23.7623 42 16.229 38.8796 10.6747 33.3253C5.12038 27.771 2 20.2377 2 12.3828C2.00013 9.83953 2.92727 7.38356 4.6078 5.4747C6.28834 3.56583 8.60703 2.33497 11.1297 2.01258C11.5035 1.96735 11.8818 2.04481 12.2077 2.23328C12.5335 2.42174 12.7893 2.71102 12.9365 3.05751L17.3117 13.2663C17.4249 13.5303 17.471 13.8183 17.446 14.1045C17.4209 14.3907 17.3255 14.6662 17.1681 14.9066L13.5452 20.4424C13.3803 20.6914 13.2828 20.9789 13.2623 21.2769C13.2417 21.5749 13.2988 21.8731 13.428 22.1423V22.1423Z" stroke="white" stroke-width="4" stroke-linecap="round" stroke-linejoin="round"/>
</svg>
